<svg width="40" height="40" viewBox="0 0 40 40" fill="none" xmlns="http://www.w3.org/2000/svg">
<path d="M12 0.5H28C34.3513 0.5 39.5 5.64873 39.5 12V28C39.5 34.3513 34.3513 39.5 28 39.5H12C5.64873 39.5 0.5 34.3513 0.5 28V12C0.5 5.64873 5.64873 0.5 12 0.5Z" stroke="#999999"/>
<path d="M13.625 18.1249C14.6605 18.1249 15.5 18.9643 15.5 19.9999C15.5 21.0354 14.6605 21.8749 13.625 21.8749C12.5895 21.8749 11.75 21.0354 11.75 19.9999C11.75 18.9643 12.5895 18.1249 13.625 18.1249Z" fill="black"/>
<path d="M20.002 18.1249C21.0375 18.1249 21.877 18.9643 21.877 19.9999C21.877 21.0354 21.0375 21.8749 20.002 21.8749C18.9664 21.8749 18.127 21.0354 18.127 19.9999C18.127 18.9643 18.9664 18.1249 20.002 18.1249Z" fill="black"/>
<path d="M26.3789 18.1249C27.4144 18.1249 28.2539 18.9643 28.2539 19.9999C28.2539 21.0354 27.4144 21.8749 26.3789 21.8749C25.3434 21.8749 24.5039 21.0354 24.5039 19.9999C24.5039 18.9643 25.3434 18.1249 26.3789 18.1249Z" fill="black"/>
</svg>
