<svg width="376" height="484" viewBox="0 0 376 484" fill="none" xmlns="http://www.w3.org/2000/svg">
<g clip-path="url(#clip0_49_2563)">
<mask id="path-2-outside-1_49_2563" maskUnits="userSpaceOnUse" x="0" y="-1" width="376" height="485" fill="black">
<rect fill="white" y="-1" width="376" height="485"/>
<path d="M0 0H376V484H0V0Z"/>
</mask>
<path d="M0 0H376V484H0V0Z" fill="white"/>
<path d="M0 0V1H376V0V-1H0V0Z" fill="#E6E6E6" mask="url(#path-2-outside-1_49_2563)"/>
<rect width="328" height="436" transform="translate(24 24)" fill="white"/>
<g clip-path="url(#clip1_49_2563)">
<rect x="24.5" y="52.5" width="327" height="39" rx="7.5" fill="white"/>
<rect x="24.5" y="52.5" width="327" height="39" rx="7.5" stroke="#CCCCCC"/>
<path d="M41.3068 66.8182V77H40.1136L34.5653 69.0057H34.4659V77H33.233V66.8182H34.4261L39.9943 74.8324H40.0938V66.8182H41.3068ZM46.5366 77.1591C45.8008 77.1591 45.1661 76.9967 44.6325 76.6719C44.1022 76.3438 43.6928 75.8864 43.4045 75.2997C43.1194 74.7098 42.9769 74.0237 42.9769 73.2415C42.9769 72.4593 43.1194 71.7699 43.4045 71.1733C43.6928 70.5734 44.0939 70.1061 44.6076 69.7713C45.1247 69.4332 45.7279 69.2642 46.4173 69.2642C46.815 69.2642 47.2077 69.3305 47.5955 69.4631C47.9833 69.5956 48.3363 69.8111 48.6545 70.1094C48.9727 70.4044 49.2262 70.7955 49.4151 71.2827C49.6041 71.7699 49.6985 72.3698 49.6985 73.0824V73.5795H43.8122V72.5653H48.5053C48.5053 72.1345 48.4192 71.75 48.2468 71.4119C48.0778 71.0739 47.8358 70.8071 47.521 70.6115C47.2094 70.416 46.8415 70.3182 46.4173 70.3182C45.9499 70.3182 45.5456 70.4342 45.2042 70.6662C44.8661 70.8949 44.6059 71.1932 44.4237 71.5611C44.2414 71.929 44.1502 72.3234 44.1502 72.7443V73.4205C44.1502 73.9972 44.2497 74.486 44.4485 74.8871C44.6507 75.2848 44.9308 75.5881 45.2887 75.7969C45.6467 76.0024 46.0626 76.1051 46.5366 76.1051C46.8448 76.1051 47.1232 76.062 47.3718 75.9759C47.6237 75.8864 47.8408 75.7538 48.0231 75.5781C48.2054 75.3991 48.3462 75.1771 48.4457 74.9119L49.5792 75.2301C49.4599 75.6146 49.2594 75.9527 48.9776 76.2443C48.6959 76.5327 48.3479 76.758 47.9336 76.9205C47.5193 77.0795 47.0536 77.1591 46.5366 77.1591ZM52.9334 77L50.6067 69.3636H51.8397L53.4902 75.2102H53.5698L55.2005 69.3636H56.4533L58.0641 75.1903H58.1437L59.7942 69.3636H61.0272L58.7005 77H57.5471L55.8766 71.1335H55.7573L54.0868 77H52.9334ZM69.2768 69.3636V70.358H65.3195V69.3636H69.2768ZM66.4729 67.5341H67.6462V74.8125C67.6462 75.1439 67.6942 75.3925 67.7903 75.5582C67.8898 75.7206 68.0157 75.83 68.1682 75.8864C68.324 75.9394 68.488 75.9659 68.6604 75.9659C68.7896 75.9659 68.8957 75.9593 68.9785 75.946C69.0614 75.9295 69.1277 75.9162 69.1774 75.9062L69.416 76.9602C69.3365 76.9901 69.2255 77.0199 69.0829 77.0497C68.9404 77.0829 68.7598 77.0994 68.541 77.0994C68.2096 77.0994 67.8848 77.0282 67.5666 76.8857C67.2517 76.7431 66.9899 76.526 66.7811 76.2344C66.5756 75.9427 66.4729 75.5748 66.4729 75.1307V67.5341ZM73.0089 77.179C72.525 77.179 72.0859 77.0878 71.6914 76.9055C71.297 76.7199 70.9838 76.4531 70.7518 76.1051C70.5198 75.7538 70.4038 75.3295 70.4038 74.8324C70.4038 74.3949 70.49 74.0402 70.6623 73.7685C70.8347 73.4934 71.065 73.2779 71.3534 73.1222C71.6417 72.9664 71.9599 72.8504 72.3079 72.7741C72.6592 72.6946 73.0122 72.6316 73.3669 72.5852C73.8309 72.5256 74.2071 72.4808 74.4954 72.451C74.7871 72.4179 74.9992 72.3632 75.1318 72.2869C75.2677 72.2107 75.3356 72.0781 75.3356 71.8892V71.8494C75.3356 71.3589 75.2014 70.9777 74.9329 70.706C74.6678 70.4342 74.2651 70.2983 73.7248 70.2983C73.1647 70.2983 72.7255 70.4209 72.4073 70.6662C72.0892 70.9115 71.8654 71.1733 71.7362 71.4517L70.6225 71.054C70.8214 70.59 71.0866 70.2287 71.418 69.9702C71.7528 69.7083 72.1173 69.526 72.5118 69.4233C72.9095 69.3172 73.3006 69.2642 73.685 69.2642C73.9303 69.2642 74.212 69.294 74.5302 69.3537C74.8517 69.41 75.1616 69.5277 75.4599 69.7067C75.7615 69.8857 76.0118 70.1558 76.2106 70.517C76.4095 70.8783 76.5089 71.3622 76.5089 71.9688V77H75.3356V75.9659H75.276C75.1964 76.1316 75.0638 76.3089 74.8782 76.4979C74.6926 76.6868 74.4457 76.8475 74.1375 76.9801C73.8292 77.1127 73.453 77.179 73.0089 77.179ZM73.1879 76.125C73.6519 76.125 74.043 76.0339 74.3612 75.8516C74.6827 75.6693 74.9246 75.4339 75.087 75.1456C75.2528 74.8572 75.3356 74.554 75.3356 74.2358V73.1619C75.2859 73.2216 75.1765 73.2763 75.0075 73.326C74.8418 73.3724 74.6495 73.4138 74.4308 73.4503C74.2154 73.4834 74.0049 73.5133 73.7994 73.5398C73.5972 73.563 73.4332 73.5829 73.3072 73.5994C73.0023 73.6392 72.7172 73.7038 72.4521 73.7933C72.1903 73.8795 71.9781 74.0104 71.8157 74.1861C71.6566 74.3584 71.5771 74.5937 71.5771 74.892C71.5771 75.2997 71.7279 75.608 72.0295 75.8168C72.3344 76.0223 72.7206 76.125 73.1879 76.125ZM81.4528 80.0227C80.8861 80.0227 80.3988 79.9498 79.9912 79.804C79.5835 79.6615 79.2438 79.4725 78.972 79.2372C78.7035 79.0052 78.4897 78.7566 78.3307 78.4915L79.2653 77.8352C79.3714 77.9744 79.5056 78.1335 79.668 78.3125C79.8304 78.4948 80.0525 78.6522 80.3342 78.7848C80.6192 78.9207 80.9921 78.9886 81.4528 78.9886C82.0693 78.9886 82.578 78.8395 82.9791 78.5412C83.3801 78.2429 83.5807 77.7756 83.5807 77.1392V75.5881H83.4812C83.395 75.7273 83.2724 75.8996 83.1133 76.1051C82.9575 76.3073 82.7322 76.4879 82.4372 76.647C82.1455 76.8028 81.7511 76.8807 81.2539 76.8807C80.6375 76.8807 80.084 76.7348 79.5934 76.4432C79.1062 76.1515 78.7201 75.7273 78.4351 75.1705C78.1533 74.6136 78.0125 73.9375 78.0125 73.142C78.0125 72.3598 78.15 71.6787 78.4251 71.0987C78.7002 70.5154 79.083 70.0646 79.5736 69.7464C80.0641 69.425 80.6308 69.2642 81.2738 69.2642C81.771 69.2642 82.1654 69.3471 82.4571 69.5128C82.7521 69.6752 82.9774 69.8608 83.1332 70.0696C83.2923 70.2751 83.4149 70.4441 83.5011 70.5767H83.6204V69.3636H84.7539V77.2188C84.7539 77.875 84.6048 78.4086 84.3065 78.8196C84.0115 79.2339 83.6138 79.5372 83.1133 79.7294C82.6162 79.925 82.0627 80.0227 81.4528 80.0227ZM81.413 75.8267C81.8837 75.8267 82.2814 75.719 82.6062 75.5036C82.931 75.2881 83.178 74.9782 83.347 74.5739C83.516 74.1695 83.6005 73.6856 83.6005 73.1222C83.6005 72.572 83.5177 72.0864 83.352 71.6655C83.1862 71.2446 82.941 70.9148 82.6162 70.6761C82.2914 70.4375 81.8903 70.3182 81.413 70.3182C80.9159 70.3182 80.5016 70.4441 80.1701 70.696C79.842 70.9479 79.5951 71.286 79.4294 71.7102C79.267 72.1345 79.1858 72.6051 79.1858 73.1222C79.1858 73.6525 79.2686 74.1214 79.4343 74.5291C79.6034 74.9335 79.852 75.2517 80.1801 75.4837C80.5115 75.7124 80.9225 75.8267 81.413 75.8267Z" fill="#CCCCCC"/>
</g>
<path d="M24.8384 29.9119V28.8182H32.4748V29.9119H29.2731V39H28.0401V29.9119H24.8384ZM35.1466 39.179C34.6627 39.179 34.2236 39.0878 33.8292 38.9055C33.4348 38.7199 33.1216 38.4531 32.8895 38.1051C32.6575 37.7538 32.5415 37.3295 32.5415 36.8324C32.5415 36.3949 32.6277 36.0402 32.8001 35.7685C32.9724 35.4934 33.2028 35.2779 33.4911 35.1222C33.7795 34.9664 34.0976 34.8504 34.4457 34.7741C34.797 34.6946 35.15 34.6316 35.5046 34.5852C35.9686 34.5256 36.3448 34.4808 36.6332 34.451C36.9248 34.4179 37.1369 34.3632 37.2695 34.2869C37.4054 34.2107 37.4734 34.0781 37.4734 33.8892V33.8494C37.4734 33.3589 37.3391 32.9777 37.0707 32.706C36.8055 32.4342 36.4028 32.2983 35.8626 32.2983C35.3024 32.2983 34.8633 32.4209 34.5451 32.6662C34.2269 32.9115 34.0032 33.1733 33.8739 33.4517L32.7603 33.054C32.9591 32.59 33.2243 32.2287 33.5557 31.9702C33.8905 31.7083 34.2551 31.526 34.6495 31.4233C35.0472 31.3172 35.4383 31.2642 35.8228 31.2642C36.068 31.2642 36.3498 31.294 36.668 31.3537C36.9895 31.41 37.2993 31.5277 37.5976 31.7067C37.8993 31.8857 38.1495 32.1558 38.3484 32.517C38.5472 32.8783 38.6466 33.3622 38.6466 33.9688V39H37.4734V37.9659H37.4137C37.3341 38.1316 37.2016 38.3089 37.016 38.4979C36.8304 38.6868 36.5834 38.8475 36.2752 38.9801C35.967 39.1127 35.5908 39.179 35.1466 39.179ZM35.3256 38.125C35.7896 38.125 36.1807 38.0339 36.4989 37.8516C36.8204 37.6693 37.0624 37.4339 37.2248 37.1456C37.3905 36.8572 37.4734 36.554 37.4734 36.2358V35.1619C37.4236 35.2216 37.3143 35.2763 37.1452 35.326C36.9795 35.3724 36.7873 35.4138 36.5685 35.4503C36.3531 35.4834 36.1426 35.5133 35.9371 35.5398C35.735 35.563 35.5709 35.5829 35.4449 35.5994C35.14 35.6392 34.855 35.7038 34.5898 35.7933C34.328 35.8795 34.1159 36.0104 33.9535 36.1861C33.7944 36.3584 33.7148 36.5937 33.7148 36.892C33.7148 37.2997 33.8656 37.608 34.1672 37.8168C34.4722 38.0223 34.8583 38.125 35.3256 38.125ZM43.5905 42.0227C43.0238 42.0227 42.5366 41.9498 42.1289 41.804C41.7212 41.6615 41.3815 41.4725 41.1097 41.2372C40.8413 41.0052 40.6275 40.7566 40.4684 40.4915L41.403 39.8352C41.5091 39.9744 41.6433 40.1335 41.8057 40.3125C41.9682 40.4948 42.1902 40.6522 42.4719 40.7848C42.757 40.9207 43.1298 40.9886 43.5905 40.9886C44.207 40.9886 44.7158 40.8395 45.1168 40.5412C45.5179 40.2429 45.7184 39.7756 45.7184 39.1392V37.5881H45.619C45.5328 37.7273 45.4101 37.8996 45.2511 38.1051C45.0953 38.3073 44.8699 38.4879 44.5749 38.647C44.2833 38.8028 43.8888 38.8807 43.3917 38.8807C42.7752 38.8807 42.2217 38.7348 41.7312 38.4432C41.244 38.1515 40.8578 37.7273 40.5728 37.1705C40.2911 36.6136 40.1502 35.9375 40.1502 35.142C40.1502 34.3598 40.2878 33.6787 40.5628 33.0987C40.8379 32.5154 41.2208 32.0646 41.7113 31.7464C42.2018 31.425 42.7686 31.2642 43.4116 31.2642C43.9087 31.2642 44.3031 31.3471 44.5948 31.5128C44.8898 31.6752 45.1152 31.8608 45.2709 32.0696C45.43 32.2751 45.5527 32.4441 45.6388 32.5767H45.7582V31.3636H46.8917V39.2188C46.8917 39.875 46.7425 40.4086 46.4442 40.8196C46.1493 41.2339 45.7515 41.5372 45.2511 41.7294C44.7539 41.925 44.2004 42.0227 43.5905 42.0227ZM43.5508 37.8267C44.0214 37.8267 44.4191 37.719 44.744 37.5036C45.0688 37.2881 45.3157 36.9782 45.4847 36.5739C45.6538 36.1695 45.7383 35.6856 45.7383 35.1222C45.7383 34.572 45.6554 34.0864 45.4897 33.6655C45.324 33.2446 45.0787 32.9148 44.7539 32.6761C44.4291 32.4375 44.028 32.3182 43.5508 32.3182C43.0536 32.3182 42.6393 32.4441 42.3079 32.696C41.9798 32.9479 41.7328 33.286 41.5671 33.7102C41.4047 34.1345 41.3235 34.6051 41.3235 35.1222C41.3235 35.6525 41.4064 36.1214 41.5721 36.5291C41.7411 36.9335 41.9897 37.2517 42.3178 37.4837C42.6493 37.7124 43.0602 37.8267 43.5508 37.8267ZM54.1685 33.0739L53.1145 33.3722C53.0482 33.1965 52.9505 33.0258 52.8212 32.8601C52.6953 32.6911 52.5229 32.5518 52.3042 32.4425C52.0854 32.3331 51.8053 32.2784 51.464 32.2784C50.9966 32.2784 50.6072 32.3861 50.2956 32.6016C49.9874 32.8137 49.8333 33.0838 49.8333 33.4119C49.8333 33.7036 49.9393 33.9339 50.1515 34.103C50.3636 34.272 50.695 34.4129 51.1458 34.5256L52.2793 34.804C52.9621 34.9697 53.4708 35.2232 53.8056 35.5646C54.1403 35.9027 54.3077 36.3385 54.3077 36.8722C54.3077 37.3097 54.1818 37.7008 53.9299 38.0455C53.6813 38.3902 53.3333 38.6619 52.8858 38.8608C52.4384 39.0597 51.918 39.1591 51.3248 39.1591C50.5459 39.1591 49.9012 38.9901 49.3908 38.652C48.8804 38.3139 48.5572 37.8201 48.4213 37.1705L49.535 36.892C49.641 37.303 49.8416 37.6113 50.1365 37.8168C50.4348 38.0223 50.8243 38.125 51.3049 38.125C51.8517 38.125 52.2859 38.009 52.6074 37.777C52.9322 37.5417 53.0946 37.2599 53.0946 36.9318C53.0946 36.6667 53.0018 36.4446 52.8162 36.2656C52.6306 36.0833 52.3456 35.9474 51.9611 35.858L50.6884 35.5597C49.9891 35.3939 49.4753 35.1371 49.1472 34.7891C48.8224 34.4377 48.66 33.9986 48.66 33.4716C48.66 33.0407 48.781 32.6596 49.0229 32.3281C49.2682 31.9967 49.6013 31.7365 50.0222 31.5476C50.4464 31.3587 50.927 31.2642 51.464 31.2642C52.2196 31.2642 52.8129 31.4299 53.2438 31.7614C53.678 32.0928 53.9862 32.5303 54.1685 33.0739Z" fill="#333333"/>
<path d="M40 116.5H336C344.56 116.5 351.5 123.44 351.5 132V444C351.5 452.56 344.56 459.5 336 459.5H40C31.4396 459.5 24.5 452.56 24.5 444V132C24.5 123.44 31.4396 116.5 40 116.5Z" stroke="#E6E6E6"/>
<rect x="45" y="137" width="14" height="14" rx="3" fill="white"/>
<rect x="45" y="137" width="14" height="14" rx="3" stroke="#7F7F7F" stroke-width="2"/>
<path d="M66.7745 139.912V138.818H74.4109V139.912H71.2092V149H69.9762V139.912H66.7745ZM77.0827 149.179C76.5988 149.179 76.1597 149.088 75.7653 148.906C75.3709 148.72 75.0576 148.453 74.8256 148.105C74.5936 147.754 74.4776 147.33 74.4776 146.832C74.4776 146.395 74.5638 146.04 74.7362 145.768C74.9085 145.493 75.1388 145.278 75.4272 145.122C75.7156 144.966 76.0337 144.85 76.3817 144.774C76.7331 144.695 77.0861 144.632 77.4407 144.585C77.9047 144.526 78.2809 144.481 78.5692 144.451C78.8609 144.418 79.073 144.363 79.2056 144.287C79.3415 144.211 79.4094 144.078 79.4094 143.889V143.849C79.4094 143.359 79.2752 142.978 79.0067 142.706C78.7416 142.434 78.3389 142.298 77.7987 142.298C77.2385 142.298 76.7994 142.421 76.4812 142.666C76.163 142.911 75.9393 143.173 75.81 143.452L74.6964 143.054C74.8952 142.59 75.1604 142.229 75.4918 141.97C75.8266 141.708 76.1912 141.526 76.5856 141.423C76.9833 141.317 77.3744 141.264 77.7589 141.264C78.0041 141.264 78.2859 141.294 78.604 141.354C78.9255 141.41 79.2354 141.528 79.5337 141.707C79.8353 141.886 80.0856 142.156 80.2844 142.517C80.4833 142.878 80.5827 143.362 80.5827 143.969V149H79.4094V147.966H79.3498C79.2702 148.132 79.1377 148.309 78.9521 148.498C78.7665 148.687 78.5195 148.848 78.2113 148.98C77.9031 149.113 77.5269 149.179 77.0827 149.179ZM77.2617 148.125C77.7257 148.125 78.1168 148.034 78.435 147.852C78.7565 147.669 78.9985 147.434 79.1609 147.146C79.3266 146.857 79.4094 146.554 79.4094 146.236V145.162C79.3597 145.222 79.2504 145.276 79.0813 145.326C78.9156 145.372 78.7234 145.414 78.5046 145.45C78.2892 145.483 78.0787 145.513 77.8732 145.54C77.671 145.563 77.507 145.583 77.381 145.599C77.0761 145.639 76.7911 145.704 76.5259 145.793C76.2641 145.879 76.052 146.01 75.8896 146.186C75.7305 146.358 75.6509 146.594 75.6509 146.892C75.6509 147.3 75.8017 147.608 76.1033 147.817C76.4083 148.022 76.7944 148.125 77.2617 148.125ZM85.5266 152.023C84.9599 152.023 84.4727 151.95 84.065 151.804C83.6573 151.661 83.3176 151.473 83.0458 151.237C82.7774 151.005 82.5636 150.757 82.4045 150.491L83.3391 149.835C83.4452 149.974 83.5794 150.134 83.7418 150.312C83.9042 150.495 84.1263 150.652 84.408 150.785C84.6931 150.921 85.0659 150.989 85.5266 150.989C86.1431 150.989 86.6519 150.839 87.0529 150.541C87.454 150.243 87.6545 149.776 87.6545 149.139V147.588H87.555C87.4689 147.727 87.3462 147.9 87.1872 148.105C87.0314 148.307 86.806 148.488 86.511 148.647C86.2193 148.803 85.8249 148.881 85.3278 148.881C84.7113 148.881 84.1578 148.735 83.6673 148.443C83.18 148.152 82.7939 147.727 82.5089 147.17C82.2272 146.614 82.0863 145.937 82.0863 145.142C82.0863 144.36 82.2238 143.679 82.4989 143.099C82.774 142.515 83.1568 142.065 83.6474 141.746C84.1379 141.425 84.7047 141.264 85.3477 141.264C85.8448 141.264 86.2392 141.347 86.5309 141.513C86.8259 141.675 87.0513 141.861 87.207 142.07C87.3661 142.275 87.4888 142.444 87.5749 142.577H87.6943V141.364H88.8278V149.219C88.8278 149.875 88.6786 150.409 88.3803 150.82C88.0854 151.234 87.6876 151.537 87.1872 151.729C86.69 151.925 86.1365 152.023 85.5266 152.023ZM85.4869 147.827C85.9575 147.827 86.3552 147.719 86.68 147.504C87.0049 147.288 87.2518 146.978 87.4208 146.574C87.5899 146.17 87.6744 145.686 87.6744 145.122C87.6744 144.572 87.5915 144.086 87.4258 143.665C87.2601 143.245 87.0148 142.915 86.69 142.676C86.3652 142.437 85.9641 142.318 85.4869 142.318C84.9897 142.318 84.5754 142.444 84.244 142.696C83.9158 142.948 83.6689 143.286 83.5032 143.71C83.3408 144.134 83.2596 144.605 83.2596 145.122C83.2596 145.652 83.3425 146.121 83.5082 146.529C83.6772 146.933 83.9258 147.252 84.2539 147.484C84.5854 147.712 84.9963 147.827 85.4869 147.827Z" fill="#333333"/>
<rect x="44" y="168" width="16" height="16" rx="4" fill="#009595"/>
<path fill-rule="evenodd" clip-rule="evenodd" d="M56.818 172.682C56.9937 172.858 56.9937 173.142 56.818 173.318L50.6305 179.506C50.4548 179.681 50.1698 179.681 49.9941 179.506L47.1816 176.693C47.0059 176.517 47.0059 176.233 47.1816 176.057C47.3573 175.881 47.6423 175.881 47.818 176.057L50.3123 178.551L56.1816 172.682C56.3573 172.506 56.6423 172.506 56.818 172.682Z" fill="white"/>
<path d="M66.7745 171.912V170.818H74.4109V171.912H71.2092V181H69.9762V171.912H66.7745ZM77.0827 181.179C76.5988 181.179 76.1597 181.088 75.7653 180.906C75.3709 180.72 75.0576 180.453 74.8256 180.105C74.5936 179.754 74.4776 179.33 74.4776 178.832C74.4776 178.395 74.5638 178.04 74.7362 177.768C74.9085 177.493 75.1388 177.278 75.4272 177.122C75.7156 176.966 76.0337 176.85 76.3817 176.774C76.7331 176.695 77.0861 176.632 77.4407 176.585C77.9047 176.526 78.2809 176.481 78.5692 176.451C78.8609 176.418 79.073 176.363 79.2056 176.287C79.3415 176.211 79.4094 176.078 79.4094 175.889V175.849C79.4094 175.359 79.2752 174.978 79.0067 174.706C78.7416 174.434 78.3389 174.298 77.7987 174.298C77.2385 174.298 76.7994 174.421 76.4812 174.666C76.163 174.911 75.9393 175.173 75.81 175.452L74.6964 175.054C74.8952 174.59 75.1604 174.229 75.4918 173.97C75.8266 173.708 76.1912 173.526 76.5856 173.423C76.9833 173.317 77.3744 173.264 77.7589 173.264C78.0041 173.264 78.2859 173.294 78.604 173.354C78.9255 173.41 79.2354 173.528 79.5337 173.707C79.8353 173.886 80.0856 174.156 80.2844 174.517C80.4833 174.878 80.5827 175.362 80.5827 175.969V181H79.4094V179.966H79.3498C79.2702 180.132 79.1377 180.309 78.9521 180.498C78.7665 180.687 78.5195 180.848 78.2113 180.98C77.9031 181.113 77.5269 181.179 77.0827 181.179ZM77.2617 180.125C77.7257 180.125 78.1168 180.034 78.435 179.852C78.7565 179.669 78.9985 179.434 79.1609 179.146C79.3266 178.857 79.4094 178.554 79.4094 178.236V177.162C79.3597 177.222 79.2504 177.276 79.0813 177.326C78.9156 177.372 78.7234 177.414 78.5046 177.45C78.2892 177.483 78.0787 177.513 77.8732 177.54C77.671 177.563 77.507 177.583 77.381 177.599C77.0761 177.639 76.7911 177.704 76.5259 177.793C76.2641 177.879 76.052 178.01 75.8896 178.186C75.7305 178.358 75.6509 178.594 75.6509 178.892C75.6509 179.3 75.8017 179.608 76.1033 179.817C76.4083 180.022 76.7944 180.125 77.2617 180.125ZM85.5266 184.023C84.9599 184.023 84.4727 183.95 84.065 183.804C83.6573 183.661 83.3176 183.473 83.0458 183.237C82.7774 183.005 82.5636 182.757 82.4045 182.491L83.3391 181.835C83.4452 181.974 83.5794 182.134 83.7418 182.312C83.9042 182.495 84.1263 182.652 84.408 182.785C84.6931 182.921 85.0659 182.989 85.5266 182.989C86.1431 182.989 86.6519 182.839 87.0529 182.541C87.454 182.243 87.6545 181.776 87.6545 181.139V179.588H87.555C87.4689 179.727 87.3462 179.9 87.1872 180.105C87.0314 180.307 86.806 180.488 86.511 180.647C86.2193 180.803 85.8249 180.881 85.3278 180.881C84.7113 180.881 84.1578 180.735 83.6673 180.443C83.18 180.152 82.7939 179.727 82.5089 179.17C82.2272 178.614 82.0863 177.937 82.0863 177.142C82.0863 176.36 82.2238 175.679 82.4989 175.099C82.774 174.515 83.1568 174.065 83.6474 173.746C84.1379 173.425 84.7047 173.264 85.3477 173.264C85.8448 173.264 86.2392 173.347 86.5309 173.513C86.8259 173.675 87.0513 173.861 87.207 174.07C87.3661 174.275 87.4888 174.444 87.5749 174.577H87.6943V173.364H88.8278V181.219C88.8278 181.875 88.6786 182.409 88.3803 182.82C88.0854 183.234 87.6876 183.537 87.1872 183.729C86.69 183.925 86.1365 184.023 85.5266 184.023ZM85.4869 179.827C85.9575 179.827 86.3552 179.719 86.68 179.504C87.0049 179.288 87.2518 178.978 87.4208 178.574C87.5899 178.17 87.6744 177.686 87.6744 177.122C87.6744 176.572 87.5915 176.086 87.4258 175.665C87.2601 175.245 87.0148 174.915 86.69 174.676C86.3652 174.437 85.9641 174.318 85.4869 174.318C84.9897 174.318 84.5754 174.444 84.244 174.696C83.9158 174.948 83.6689 175.286 83.5032 175.71C83.3408 176.134 83.2596 176.605 83.2596 177.122C83.2596 177.652 83.3425 178.121 83.5082 178.529C83.6772 178.933 83.9258 179.252 84.2539 179.484C84.5854 179.712 84.9963 179.827 85.4869 179.827Z" fill="#333333"/>
<rect x="45" y="201" width="14" height="14" rx="3" fill="white"/>
<rect x="45" y="201" width="14" height="14" rx="3" stroke="#7F7F7F" stroke-width="2"/>
<path d="M66.7745 203.912V202.818H74.4109V203.912H71.2092V213H69.9762V203.912H66.7745ZM77.0827 213.179C76.5988 213.179 76.1597 213.088 75.7653 212.906C75.3709 212.72 75.0576 212.453 74.8256 212.105C74.5936 211.754 74.4776 211.33 74.4776 210.832C74.4776 210.395 74.5638 210.04 74.7362 209.768C74.9085 209.493 75.1388 209.278 75.4272 209.122C75.7156 208.966 76.0337 208.85 76.3817 208.774C76.7331 208.695 77.0861 208.632 77.4407 208.585C77.9047 208.526 78.2809 208.481 78.5692 208.451C78.8609 208.418 79.073 208.363 79.2056 208.287C79.3415 208.211 79.4094 208.078 79.4094 207.889V207.849C79.4094 207.359 79.2752 206.978 79.0067 206.706C78.7416 206.434 78.3389 206.298 77.7987 206.298C77.2385 206.298 76.7994 206.421 76.4812 206.666C76.163 206.911 75.9393 207.173 75.81 207.452L74.6964 207.054C74.8952 206.59 75.1604 206.229 75.4918 205.97C75.8266 205.708 76.1912 205.526 76.5856 205.423C76.9833 205.317 77.3744 205.264 77.7589 205.264C78.0041 205.264 78.2859 205.294 78.604 205.354C78.9255 205.41 79.2354 205.528 79.5337 205.707C79.8353 205.886 80.0856 206.156 80.2844 206.517C80.4833 206.878 80.5827 207.362 80.5827 207.969V213H79.4094V211.966H79.3498C79.2702 212.132 79.1377 212.309 78.9521 212.498C78.7665 212.687 78.5195 212.848 78.2113 212.98C77.9031 213.113 77.5269 213.179 77.0827 213.179ZM77.2617 212.125C77.7257 212.125 78.1168 212.034 78.435 211.852C78.7565 211.669 78.9985 211.434 79.1609 211.146C79.3266 210.857 79.4094 210.554 79.4094 210.236V209.162C79.3597 209.222 79.2504 209.276 79.0813 209.326C78.9156 209.372 78.7234 209.414 78.5046 209.45C78.2892 209.483 78.0787 209.513 77.8732 209.54C77.671 209.563 77.507 209.583 77.381 209.599C77.0761 209.639 76.7911 209.704 76.5259 209.793C76.2641 209.879 76.052 210.01 75.8896 210.186C75.7305 210.358 75.6509 210.594 75.6509 210.892C75.6509 211.3 75.8017 211.608 76.1033 211.817C76.4083 212.022 76.7944 212.125 77.2617 212.125ZM85.5266 216.023C84.9599 216.023 84.4727 215.95 84.065 215.804C83.6573 215.661 83.3176 215.473 83.0458 215.237C82.7774 215.005 82.5636 214.757 82.4045 214.491L83.3391 213.835C83.4452 213.974 83.5794 214.134 83.7418 214.312C83.9042 214.495 84.1263 214.652 84.408 214.785C84.6931 214.921 85.0659 214.989 85.5266 214.989C86.1431 214.989 86.6519 214.839 87.0529 214.541C87.454 214.243 87.6545 213.776 87.6545 213.139V211.588H87.555C87.4689 211.727 87.3462 211.9 87.1872 212.105C87.0314 212.307 86.806 212.488 86.511 212.647C86.2193 212.803 85.8249 212.881 85.3278 212.881C84.7113 212.881 84.1578 212.735 83.6673 212.443C83.18 212.152 82.7939 211.727 82.5089 211.17C82.2272 210.614 82.0863 209.937 82.0863 209.142C82.0863 208.36 82.2238 207.679 82.4989 207.099C82.774 206.515 83.1568 206.065 83.6474 205.746C84.1379 205.425 84.7047 205.264 85.3477 205.264C85.8448 205.264 86.2392 205.347 86.5309 205.513C86.8259 205.675 87.0513 205.861 87.207 206.07C87.3661 206.275 87.4888 206.444 87.5749 206.577H87.6943V205.364H88.8278V213.219C88.8278 213.875 88.6786 214.409 88.3803 214.82C88.0854 215.234 87.6876 215.537 87.1872 215.729C86.69 215.925 86.1365 216.023 85.5266 216.023ZM85.4869 211.827C85.9575 211.827 86.3552 211.719 86.68 211.504C87.0049 211.288 87.2518 210.978 87.4208 210.574C87.5899 210.17 87.6744 209.686 87.6744 209.122C87.6744 208.572 87.5915 208.086 87.4258 207.665C87.2601 207.245 87.0148 206.915 86.69 206.676C86.3652 206.437 85.9641 206.318 85.4869 206.318C84.9897 206.318 84.5754 206.444 84.244 206.696C83.9158 206.948 83.6689 207.286 83.5032 207.71C83.3408 208.134 83.2596 208.605 83.2596 209.122C83.2596 209.652 83.3425 210.121 83.5082 210.529C83.6772 210.933 83.9258 211.252 84.2539 211.484C84.5854 211.712 84.9963 211.827 85.4869 211.827Z" fill="#333333"/>
<rect x="45" y="233" width="14" height="14" rx="3" fill="white"/>
<rect x="45" y="233" width="14" height="14" rx="3" stroke="#7F7F7F" stroke-width="2"/>
<path d="M66.7745 235.912V234.818H74.4109V235.912H71.2092V245H69.9762V235.912H66.7745ZM77.0827 245.179C76.5988 245.179 76.1597 245.088 75.7653 244.906C75.3709 244.72 75.0576 244.453 74.8256 244.105C74.5936 243.754 74.4776 243.33 74.4776 242.832C74.4776 242.395 74.5638 242.04 74.7362 241.768C74.9085 241.493 75.1388 241.278 75.4272 241.122C75.7156 240.966 76.0337 240.85 76.3817 240.774C76.7331 240.695 77.0861 240.632 77.4407 240.585C77.9047 240.526 78.2809 240.481 78.5692 240.451C78.8609 240.418 79.073 240.363 79.2056 240.287C79.3415 240.211 79.4094 240.078 79.4094 239.889V239.849C79.4094 239.359 79.2752 238.978 79.0067 238.706C78.7416 238.434 78.3389 238.298 77.7987 238.298C77.2385 238.298 76.7994 238.421 76.4812 238.666C76.163 238.911 75.9393 239.173 75.81 239.452L74.6964 239.054C74.8952 238.59 75.1604 238.229 75.4918 237.97C75.8266 237.708 76.1912 237.526 76.5856 237.423C76.9833 237.317 77.3744 237.264 77.7589 237.264C78.0041 237.264 78.2859 237.294 78.604 237.354C78.9255 237.41 79.2354 237.528 79.5337 237.707C79.8353 237.886 80.0856 238.156 80.2844 238.517C80.4833 238.878 80.5827 239.362 80.5827 239.969V245H79.4094V243.966H79.3498C79.2702 244.132 79.1377 244.309 78.9521 244.498C78.7665 244.687 78.5195 244.848 78.2113 244.98C77.9031 245.113 77.5269 245.179 77.0827 245.179ZM77.2617 244.125C77.7257 244.125 78.1168 244.034 78.435 243.852C78.7565 243.669 78.9985 243.434 79.1609 243.146C79.3266 242.857 79.4094 242.554 79.4094 242.236V241.162C79.3597 241.222 79.2504 241.276 79.0813 241.326C78.9156 241.372 78.7234 241.414 78.5046 241.45C78.2892 241.483 78.0787 241.513 77.8732 241.54C77.671 241.563 77.507 241.583 77.381 241.599C77.0761 241.639 76.7911 241.704 76.5259 241.793C76.2641 241.879 76.052 242.01 75.8896 242.186C75.7305 242.358 75.6509 242.594 75.6509 242.892C75.6509 243.3 75.8017 243.608 76.1033 243.817C76.4083 244.022 76.7944 244.125 77.2617 244.125ZM85.5266 248.023C84.9599 248.023 84.4727 247.95 84.065 247.804C83.6573 247.661 83.3176 247.473 83.0458 247.237C82.7774 247.005 82.5636 246.757 82.4045 246.491L83.3391 245.835C83.4452 245.974 83.5794 246.134 83.7418 246.312C83.9042 246.495 84.1263 246.652 84.408 246.785C84.6931 246.921 85.0659 246.989 85.5266 246.989C86.1431 246.989 86.6519 246.839 87.0529 246.541C87.454 246.243 87.6545 245.776 87.6545 245.139V243.588H87.555C87.4689 243.727 87.3462 243.9 87.1872 244.105C87.0314 244.307 86.806 244.488 86.511 244.647C86.2193 244.803 85.8249 244.881 85.3278 244.881C84.7113 244.881 84.1578 244.735 83.6673 244.443C83.18 244.152 82.7939 243.727 82.5089 243.17C82.2272 242.614 82.0863 241.937 82.0863 241.142C82.0863 240.36 82.2238 239.679 82.4989 239.099C82.774 238.515 83.1568 238.065 83.6474 237.746C84.1379 237.425 84.7047 237.264 85.3477 237.264C85.8448 237.264 86.2392 237.347 86.5309 237.513C86.8259 237.675 87.0513 237.861 87.207 238.07C87.3661 238.275 87.4888 238.444 87.5749 238.577H87.6943V237.364H88.8278V245.219C88.8278 245.875 88.6786 246.409 88.3803 246.82C88.0854 247.234 87.6876 247.537 87.1872 247.729C86.69 247.925 86.1365 248.023 85.5266 248.023ZM85.4869 243.827C85.9575 243.827 86.3552 243.719 86.68 243.504C87.0049 243.288 87.2518 242.978 87.4208 242.574C87.5899 242.17 87.6744 241.686 87.6744 241.122C87.6744 240.572 87.5915 240.086 87.4258 239.665C87.2601 239.245 87.0148 238.915 86.69 238.676C86.3652 238.437 85.9641 238.318 85.4869 238.318C84.9897 238.318 84.5754 238.444 84.244 238.696C83.9158 238.948 83.6689 239.286 83.5032 239.71C83.3408 240.134 83.2596 240.605 83.2596 241.122C83.2596 241.652 83.3425 242.121 83.5082 242.529C83.6772 242.933 83.9258 243.252 84.2539 243.484C84.5854 243.712 84.9963 243.827 85.4869 243.827Z" fill="#333333"/>
<rect x="45" y="265" width="14" height="14" rx="3" fill="white"/>
<rect x="45" y="265" width="14" height="14" rx="3" stroke="#7F7F7F" stroke-width="2"/>
<path d="M66.7745 267.912V266.818H74.4109V267.912H71.2092V277H69.9762V267.912H66.7745ZM77.0827 277.179C76.5988 277.179 76.1597 277.088 75.7653 276.906C75.3709 276.72 75.0576 276.453 74.8256 276.105C74.5936 275.754 74.4776 275.33 74.4776 274.832C74.4776 274.395 74.5638 274.04 74.7362 273.768C74.9085 273.493 75.1388 273.278 75.4272 273.122C75.7156 272.966 76.0337 272.85 76.3817 272.774C76.7331 272.695 77.0861 272.632 77.4407 272.585C77.9047 272.526 78.2809 272.481 78.5692 272.451C78.8609 272.418 79.073 272.363 79.2056 272.287C79.3415 272.211 79.4094 272.078 79.4094 271.889V271.849C79.4094 271.359 79.2752 270.978 79.0067 270.706C78.7416 270.434 78.3389 270.298 77.7987 270.298C77.2385 270.298 76.7994 270.421 76.4812 270.666C76.163 270.911 75.9393 271.173 75.81 271.452L74.6964 271.054C74.8952 270.59 75.1604 270.229 75.4918 269.97C75.8266 269.708 76.1912 269.526 76.5856 269.423C76.9833 269.317 77.3744 269.264 77.7589 269.264C78.0041 269.264 78.2859 269.294 78.604 269.354C78.9255 269.41 79.2354 269.528 79.5337 269.707C79.8353 269.886 80.0856 270.156 80.2844 270.517C80.4833 270.878 80.5827 271.362 80.5827 271.969V277H79.4094V275.966H79.3498C79.2702 276.132 79.1377 276.309 78.9521 276.498C78.7665 276.687 78.5195 276.848 78.2113 276.98C77.9031 277.113 77.5269 277.179 77.0827 277.179ZM77.2617 276.125C77.7257 276.125 78.1168 276.034 78.435 275.852C78.7565 275.669 78.9985 275.434 79.1609 275.146C79.3266 274.857 79.4094 274.554 79.4094 274.236V273.162C79.3597 273.222 79.2504 273.276 79.0813 273.326C78.9156 273.372 78.7234 273.414 78.5046 273.45C78.2892 273.483 78.0787 273.513 77.8732 273.54C77.671 273.563 77.507 273.583 77.381 273.599C77.0761 273.639 76.7911 273.704 76.5259 273.793C76.2641 273.879 76.052 274.01 75.8896 274.186C75.7305 274.358 75.6509 274.594 75.6509 274.892C75.6509 275.3 75.8017 275.608 76.1033 275.817C76.4083 276.022 76.7944 276.125 77.2617 276.125ZM85.5266 280.023C84.9599 280.023 84.4727 279.95 84.065 279.804C83.6573 279.661 83.3176 279.473 83.0458 279.237C82.7774 279.005 82.5636 278.757 82.4045 278.491L83.3391 277.835C83.4452 277.974 83.5794 278.134 83.7418 278.312C83.9042 278.495 84.1263 278.652 84.408 278.785C84.6931 278.921 85.0659 278.989 85.5266 278.989C86.1431 278.989 86.6519 278.839 87.0529 278.541C87.454 278.243 87.6545 277.776 87.6545 277.139V275.588H87.555C87.4689 275.727 87.3462 275.9 87.1872 276.105C87.0314 276.307 86.806 276.488 86.511 276.647C86.2193 276.803 85.8249 276.881 85.3278 276.881C84.7113 276.881 84.1578 276.735 83.6673 276.443C83.18 276.152 82.7939 275.727 82.5089 275.17C82.2272 274.614 82.0863 273.937 82.0863 273.142C82.0863 272.36 82.2238 271.679 82.4989 271.099C82.774 270.515 83.1568 270.065 83.6474 269.746C84.1379 269.425 84.7047 269.264 85.3477 269.264C85.8448 269.264 86.2392 269.347 86.5309 269.513C86.8259 269.675 87.0513 269.861 87.207 270.07C87.3661 270.275 87.4888 270.444 87.5749 270.577H87.6943V269.364H88.8278V277.219C88.8278 277.875 88.6786 278.409 88.3803 278.82C88.0854 279.234 87.6876 279.537 87.1872 279.729C86.69 279.925 86.1365 280.023 85.5266 280.023ZM85.4869 275.827C85.9575 275.827 86.3552 275.719 86.68 275.504C87.0049 275.288 87.2518 274.978 87.4208 274.574C87.5899 274.17 87.6744 273.686 87.6744 273.122C87.6744 272.572 87.5915 272.086 87.4258 271.665C87.2601 271.245 87.0148 270.915 86.69 270.676C86.3652 270.437 85.9641 270.318 85.4869 270.318C84.9897 270.318 84.5754 270.444 84.244 270.696C83.9158 270.948 83.6689 271.286 83.5032 271.71C83.3408 272.134 83.2596 272.605 83.2596 273.122C83.2596 273.652 83.3425 274.121 83.5082 274.529C83.6772 274.933 83.9258 275.252 84.2539 275.484C84.5854 275.712 84.9963 275.827 85.4869 275.827Z" fill="#333333"/>
<rect x="45" y="297" width="14" height="14" rx="3" fill="white"/>
<rect x="45" y="297" width="14" height="14" rx="3" stroke="#7F7F7F" stroke-width="2"/>
<path d="M66.7745 299.912V298.818H74.4109V299.912H71.2092V309H69.9762V299.912H66.7745ZM77.0827 309.179C76.5988 309.179 76.1597 309.088 75.7653 308.906C75.3709 308.72 75.0576 308.453 74.8256 308.105C74.5936 307.754 74.4776 307.33 74.4776 306.832C74.4776 306.395 74.5638 306.04 74.7362 305.768C74.9085 305.493 75.1388 305.278 75.4272 305.122C75.7156 304.966 76.0337 304.85 76.3817 304.774C76.7331 304.695 77.0861 304.632 77.4407 304.585C77.9047 304.526 78.2809 304.481 78.5692 304.451C78.8609 304.418 79.073 304.363 79.2056 304.287C79.3415 304.211 79.4094 304.078 79.4094 303.889V303.849C79.4094 303.359 79.2752 302.978 79.0067 302.706C78.7416 302.434 78.3389 302.298 77.7987 302.298C77.2385 302.298 76.7994 302.421 76.4812 302.666C76.163 302.911 75.9393 303.173 75.81 303.452L74.6964 303.054C74.8952 302.59 75.1604 302.229 75.4918 301.97C75.8266 301.708 76.1912 301.526 76.5856 301.423C76.9833 301.317 77.3744 301.264 77.7589 301.264C78.0041 301.264 78.2859 301.294 78.604 301.354C78.9255 301.41 79.2354 301.528 79.5337 301.707C79.8353 301.886 80.0856 302.156 80.2844 302.517C80.4833 302.878 80.5827 303.362 80.5827 303.969V309H79.4094V307.966H79.3498C79.2702 308.132 79.1377 308.309 78.9521 308.498C78.7665 308.687 78.5195 308.848 78.2113 308.98C77.9031 309.113 77.5269 309.179 77.0827 309.179ZM77.2617 308.125C77.7257 308.125 78.1168 308.034 78.435 307.852C78.7565 307.669 78.9985 307.434 79.1609 307.146C79.3266 306.857 79.4094 306.554 79.4094 306.236V305.162C79.3597 305.222 79.2504 305.276 79.0813 305.326C78.9156 305.372 78.7234 305.414 78.5046 305.45C78.2892 305.483 78.0787 305.513 77.8732 305.54C77.671 305.563 77.507 305.583 77.381 305.599C77.0761 305.639 76.7911 305.704 76.5259 305.793C76.2641 305.879 76.052 306.01 75.8896 306.186C75.7305 306.358 75.6509 306.594 75.6509 306.892C75.6509 307.3 75.8017 307.608 76.1033 307.817C76.4083 308.022 76.7944 308.125 77.2617 308.125ZM85.5266 312.023C84.9599 312.023 84.4727 311.95 84.065 311.804C83.6573 311.661 83.3176 311.473 83.0458 311.237C82.7774 311.005 82.5636 310.757 82.4045 310.491L83.3391 309.835C83.4452 309.974 83.5794 310.134 83.7418 310.312C83.9042 310.495 84.1263 310.652 84.408 310.785C84.6931 310.921 85.0659 310.989 85.5266 310.989C86.1431 310.989 86.6519 310.839 87.0529 310.541C87.454 310.243 87.6545 309.776 87.6545 309.139V307.588H87.555C87.4689 307.727 87.3462 307.9 87.1872 308.105C87.0314 308.307 86.806 308.488 86.511 308.647C86.2193 308.803 85.8249 308.881 85.3278 308.881C84.7113 308.881 84.1578 308.735 83.6673 308.443C83.18 308.152 82.7939 307.727 82.5089 307.17C82.2272 306.614 82.0863 305.937 82.0863 305.142C82.0863 304.36 82.2238 303.679 82.4989 303.099C82.774 302.515 83.1568 302.065 83.6474 301.746C84.1379 301.425 84.7047 301.264 85.3477 301.264C85.8448 301.264 86.2392 301.347 86.5309 301.513C86.8259 301.675 87.0513 301.861 87.207 302.07C87.3661 302.275 87.4888 302.444 87.5749 302.577H87.6943V301.364H88.8278V309.219C88.8278 309.875 88.6786 310.409 88.3803 310.82C88.0854 311.234 87.6876 311.537 87.1872 311.729C86.69 311.925 86.1365 312.023 85.5266 312.023ZM85.4869 307.827C85.9575 307.827 86.3552 307.719 86.68 307.504C87.0049 307.288 87.2518 306.978 87.4208 306.574C87.5899 306.17 87.6744 305.686 87.6744 305.122C87.6744 304.572 87.5915 304.086 87.4258 303.665C87.2601 303.245 87.0148 302.915 86.69 302.676C86.3652 302.437 85.9641 302.318 85.4869 302.318C84.9897 302.318 84.5754 302.444 84.244 302.696C83.9158 302.948 83.6689 303.286 83.5032 303.71C83.3408 304.134 83.2596 304.605 83.2596 305.122C83.2596 305.652 83.3425 306.121 83.5082 306.529C83.6772 306.933 83.9258 307.252 84.2539 307.484C84.5854 307.712 84.9963 307.827 85.4869 307.827Z" fill="#333333"/>
<rect x="45" y="329" width="14" height="14" rx="3" fill="white"/>
<rect x="45" y="329" width="14" height="14" rx="3" stroke="#7F7F7F" stroke-width="2"/>
<path d="M66.7745 331.912V330.818H74.4109V331.912H71.2092V341H69.9762V331.912H66.7745ZM77.0827 341.179C76.5988 341.179 76.1597 341.088 75.7653 340.906C75.3709 340.72 75.0576 340.453 74.8256 340.105C74.5936 339.754 74.4776 339.33 74.4776 338.832C74.4776 338.395 74.5638 338.04 74.7362 337.768C74.9085 337.493 75.1388 337.278 75.4272 337.122C75.7156 336.966 76.0337 336.85 76.3817 336.774C76.7331 336.695 77.0861 336.632 77.4407 336.585C77.9047 336.526 78.2809 336.481 78.5692 336.451C78.8609 336.418 79.073 336.363 79.2056 336.287C79.3415 336.211 79.4094 336.078 79.4094 335.889V335.849C79.4094 335.359 79.2752 334.978 79.0067 334.706C78.7416 334.434 78.3389 334.298 77.7987 334.298C77.2385 334.298 76.7994 334.421 76.4812 334.666C76.163 334.911 75.9393 335.173 75.81 335.452L74.6964 335.054C74.8952 334.59 75.1604 334.229 75.4918 333.97C75.8266 333.708 76.1912 333.526 76.5856 333.423C76.9833 333.317 77.3744 333.264 77.7589 333.264C78.0041 333.264 78.2859 333.294 78.604 333.354C78.9255 333.41 79.2354 333.528 79.5337 333.707C79.8353 333.886 80.0856 334.156 80.2844 334.517C80.4833 334.878 80.5827 335.362 80.5827 335.969V341H79.4094V339.966H79.3498C79.2702 340.132 79.1377 340.309 78.9521 340.498C78.7665 340.687 78.5195 340.848 78.2113 340.98C77.9031 341.113 77.5269 341.179 77.0827 341.179ZM77.2617 340.125C77.7257 340.125 78.1168 340.034 78.435 339.852C78.7565 339.669 78.9985 339.434 79.1609 339.146C79.3266 338.857 79.4094 338.554 79.4094 338.236V337.162C79.3597 337.222 79.2504 337.276 79.0813 337.326C78.9156 337.372 78.7234 337.414 78.5046 337.45C78.2892 337.483 78.0787 337.513 77.8732 337.54C77.671 337.563 77.507 337.583 77.381 337.599C77.0761 337.639 76.7911 337.704 76.5259 337.793C76.2641 337.879 76.052 338.01 75.8896 338.186C75.7305 338.358 75.6509 338.594 75.6509 338.892C75.6509 339.3 75.8017 339.608 76.1033 339.817C76.4083 340.022 76.7944 340.125 77.2617 340.125ZM85.5266 344.023C84.9599 344.023 84.4727 343.95 84.065 343.804C83.6573 343.661 83.3176 343.473 83.0458 343.237C82.7774 343.005 82.5636 342.757 82.4045 342.491L83.3391 341.835C83.4452 341.974 83.5794 342.134 83.7418 342.312C83.9042 342.495 84.1263 342.652 84.408 342.785C84.6931 342.921 85.0659 342.989 85.5266 342.989C86.1431 342.989 86.6519 342.839 87.0529 342.541C87.454 342.243 87.6545 341.776 87.6545 341.139V339.588H87.555C87.4689 339.727 87.3462 339.9 87.1872 340.105C87.0314 340.307 86.806 340.488 86.511 340.647C86.2193 340.803 85.8249 340.881 85.3278 340.881C84.7113 340.881 84.1578 340.735 83.6673 340.443C83.18 340.152 82.7939 339.727 82.5089 339.17C82.2272 338.614 82.0863 337.937 82.0863 337.142C82.0863 336.36 82.2238 335.679 82.4989 335.099C82.774 334.515 83.1568 334.065 83.6474 333.746C84.1379 333.425 84.7047 333.264 85.3477 333.264C85.8448 333.264 86.2392 333.347 86.5309 333.513C86.8259 333.675 87.0513 333.861 87.207 334.07C87.3661 334.275 87.4888 334.444 87.5749 334.577H87.6943V333.364H88.8278V341.219C88.8278 341.875 88.6786 342.409 88.3803 342.82C88.0854 343.234 87.6876 343.537 87.1872 343.729C86.69 343.925 86.1365 344.023 85.5266 344.023ZM85.4869 339.827C85.9575 339.827 86.3552 339.719 86.68 339.504C87.0049 339.288 87.2518 338.978 87.4208 338.574C87.5899 338.17 87.6744 337.686 87.6744 337.122C87.6744 336.572 87.5915 336.086 87.4258 335.665C87.2601 335.245 87.0148 334.915 86.69 334.676C86.3652 334.437 85.9641 334.318 85.4869 334.318C84.9897 334.318 84.5754 334.444 84.244 334.696C83.9158 334.948 83.6689 335.286 83.5032 335.71C83.3408 336.134 83.2596 336.605 83.2596 337.122C83.2596 337.652 83.3425 338.121 83.5082 338.529C83.6772 338.933 83.9258 339.252 84.2539 339.484C84.5854 339.712 84.9963 339.827 85.4869 339.827Z" fill="#333333"/>
<rect x="45" y="361" width="14" height="14" rx="3" fill="white"/>
<rect x="45" y="361" width="14" height="14" rx="3" stroke="#7F7F7F" stroke-width="2"/>
<path d="M66.7745 363.912V362.818H74.4109V363.912H71.2092V373H69.9762V363.912H66.7745ZM77.0827 373.179C76.5988 373.179 76.1597 373.088 75.7653 372.906C75.3709 372.72 75.0576 372.453 74.8256 372.105C74.5936 371.754 74.4776 371.33 74.4776 370.832C74.4776 370.395 74.5638 370.04 74.7362 369.768C74.9085 369.493 75.1388 369.278 75.4272 369.122C75.7156 368.966 76.0337 368.85 76.3817 368.774C76.7331 368.695 77.0861 368.632 77.4407 368.585C77.9047 368.526 78.2809 368.481 78.5692 368.451C78.8609 368.418 79.073 368.363 79.2056 368.287C79.3415 368.211 79.4094 368.078 79.4094 367.889V367.849C79.4094 367.359 79.2752 366.978 79.0067 366.706C78.7416 366.434 78.3389 366.298 77.7987 366.298C77.2385 366.298 76.7994 366.421 76.4812 366.666C76.163 366.911 75.9393 367.173 75.81 367.452L74.6964 367.054C74.8952 366.59 75.1604 366.229 75.4918 365.97C75.8266 365.708 76.1912 365.526 76.5856 365.423C76.9833 365.317 77.3744 365.264 77.7589 365.264C78.0041 365.264 78.2859 365.294 78.604 365.354C78.9255 365.41 79.2354 365.528 79.5337 365.707C79.8353 365.886 80.0856 366.156 80.2844 366.517C80.4833 366.878 80.5827 367.362 80.5827 367.969V373H79.4094V371.966H79.3498C79.2702 372.132 79.1377 372.309 78.9521 372.498C78.7665 372.687 78.5195 372.848 78.2113 372.98C77.9031 373.113 77.5269 373.179 77.0827 373.179ZM77.2617 372.125C77.7257 372.125 78.1168 372.034 78.435 371.852C78.7565 371.669 78.9985 371.434 79.1609 371.146C79.3266 370.857 79.4094 370.554 79.4094 370.236V369.162C79.3597 369.222 79.2504 369.276 79.0813 369.326C78.9156 369.372 78.7234 369.414 78.5046 369.45C78.2892 369.483 78.0787 369.513 77.8732 369.54C77.671 369.563 77.507 369.583 77.381 369.599C77.0761 369.639 76.7911 369.704 76.5259 369.793C76.2641 369.879 76.052 370.01 75.8896 370.186C75.7305 370.358 75.6509 370.594 75.6509 370.892C75.6509 371.3 75.8017 371.608 76.1033 371.817C76.4083 372.022 76.7944 372.125 77.2617 372.125ZM85.5266 376.023C84.9599 376.023 84.4727 375.95 84.065 375.804C83.6573 375.661 83.3176 375.473 83.0458 375.237C82.7774 375.005 82.5636 374.757 82.4045 374.491L83.3391 373.835C83.4452 373.974 83.5794 374.134 83.7418 374.312C83.9042 374.495 84.1263 374.652 84.408 374.785C84.6931 374.921 85.0659 374.989 85.5266 374.989C86.1431 374.989 86.6519 374.839 87.0529 374.541C87.454 374.243 87.6545 373.776 87.6545 373.139V371.588H87.555C87.4689 371.727 87.3462 371.9 87.1872 372.105C87.0314 372.307 86.806 372.488 86.511 372.647C86.2193 372.803 85.8249 372.881 85.3278 372.881C84.7113 372.881 84.1578 372.735 83.6673 372.443C83.18 372.152 82.7939 371.727 82.5089 371.17C82.2272 370.614 82.0863 369.937 82.0863 369.142C82.0863 368.36 82.2238 367.679 82.4989 367.099C82.774 366.515 83.1568 366.065 83.6474 365.746C84.1379 365.425 84.7047 365.264 85.3477 365.264C85.8448 365.264 86.2392 365.347 86.5309 365.513C86.8259 365.675 87.0513 365.861 87.207 366.07C87.3661 366.275 87.4888 366.444 87.5749 366.577H87.6943V365.364H88.8278V373.219C88.8278 373.875 88.6786 374.409 88.3803 374.82C88.0854 375.234 87.6876 375.537 87.1872 375.729C86.69 375.925 86.1365 376.023 85.5266 376.023ZM85.4869 371.827C85.9575 371.827 86.3552 371.719 86.68 371.504C87.0049 371.288 87.2518 370.978 87.4208 370.574C87.5899 370.17 87.6744 369.686 87.6744 369.122C87.6744 368.572 87.5915 368.086 87.4258 367.665C87.2601 367.245 87.0148 366.915 86.69 366.676C86.3652 366.437 85.9641 366.318 85.4869 366.318C84.9897 366.318 84.5754 366.444 84.244 366.696C83.9158 366.948 83.6689 367.286 83.5032 367.71C83.3408 368.134 83.2596 368.605 83.2596 369.122C83.2596 369.652 83.3425 370.121 83.5082 370.529C83.6772 370.933 83.9258 371.252 84.2539 371.484C84.5854 371.712 84.9963 371.827 85.4869 371.827Z" fill="#333333"/>
<rect x="45" y="393" width="14" height="14" rx="3" fill="white"/>
<rect x="45" y="393" width="14" height="14" rx="3" stroke="#7F7F7F" stroke-width="2"/>
<path d="M66.7745 395.912V394.818H74.4109V395.912H71.2092V405H69.9762V395.912H66.7745ZM77.0827 405.179C76.5988 405.179 76.1597 405.088 75.7653 404.906C75.3709 404.72 75.0576 404.453 74.8256 404.105C74.5936 403.754 74.4776 403.33 74.4776 402.832C74.4776 402.395 74.5638 402.04 74.7362 401.768C74.9085 401.493 75.1388 401.278 75.4272 401.122C75.7156 400.966 76.0337 400.85 76.3817 400.774C76.7331 400.695 77.0861 400.632 77.4407 400.585C77.9047 400.526 78.2809 400.481 78.5692 400.451C78.8609 400.418 79.073 400.363 79.2056 400.287C79.3415 400.211 79.4094 400.078 79.4094 399.889V399.849C79.4094 399.359 79.2752 398.978 79.0067 398.706C78.7416 398.434 78.3389 398.298 77.7987 398.298C77.2385 398.298 76.7994 398.421 76.4812 398.666C76.163 398.911 75.9393 399.173 75.81 399.452L74.6964 399.054C74.8952 398.59 75.1604 398.229 75.4918 397.97C75.8266 397.708 76.1912 397.526 76.5856 397.423C76.9833 397.317 77.3744 397.264 77.7589 397.264C78.0041 397.264 78.2859 397.294 78.604 397.354C78.9255 397.41 79.2354 397.528 79.5337 397.707C79.8353 397.886 80.0856 398.156 80.2844 398.517C80.4833 398.878 80.5827 399.362 80.5827 399.969V405H79.4094V403.966H79.3498C79.2702 404.132 79.1377 404.309 78.9521 404.498C78.7665 404.687 78.5195 404.848 78.2113 404.98C77.9031 405.113 77.5269 405.179 77.0827 405.179ZM77.2617 404.125C77.7257 404.125 78.1168 404.034 78.435 403.852C78.7565 403.669 78.9985 403.434 79.1609 403.146C79.3266 402.857 79.4094 402.554 79.4094 402.236V401.162C79.3597 401.222 79.2504 401.276 79.0813 401.326C78.9156 401.372 78.7234 401.414 78.5046 401.45C78.2892 401.483 78.0787 401.513 77.8732 401.54C77.671 401.563 77.507 401.583 77.381 401.599C77.0761 401.639 76.7911 401.704 76.5259 401.793C76.2641 401.879 76.052 402.01 75.8896 402.186C75.7305 402.358 75.6509 402.594 75.6509 402.892C75.6509 403.3 75.8017 403.608 76.1033 403.817C76.4083 404.022 76.7944 404.125 77.2617 404.125ZM85.5266 408.023C84.9599 408.023 84.4727 407.95 84.065 407.804C83.6573 407.661 83.3176 407.473 83.0458 407.237C82.7774 407.005 82.5636 406.757 82.4045 406.491L83.3391 405.835C83.4452 405.974 83.5794 406.134 83.7418 406.312C83.9042 406.495 84.1263 406.652 84.408 406.785C84.6931 406.921 85.0659 406.989 85.5266 406.989C86.1431 406.989 86.6519 406.839 87.0529 406.541C87.454 406.243 87.6545 405.776 87.6545 405.139V403.588H87.555C87.4689 403.727 87.3462 403.9 87.1872 404.105C87.0314 404.307 86.806 404.488 86.511 404.647C86.2193 404.803 85.8249 404.881 85.3278 404.881C84.7113 404.881 84.1578 404.735 83.6673 404.443C83.18 404.152 82.7939 403.727 82.5089 403.17C82.2272 402.614 82.0863 401.937 82.0863 401.142C82.0863 400.36 82.2238 399.679 82.4989 399.099C82.774 398.515 83.1568 398.065 83.6474 397.746C84.1379 397.425 84.7047 397.264 85.3477 397.264C85.8448 397.264 86.2392 397.347 86.5309 397.513C86.8259 397.675 87.0513 397.861 87.207 398.07C87.3661 398.275 87.4888 398.444 87.5749 398.577H87.6943V397.364H88.8278V405.219C88.8278 405.875 88.6786 406.409 88.3803 406.82C88.0854 407.234 87.6876 407.537 87.1872 407.729C86.69 407.925 86.1365 408.023 85.5266 408.023ZM85.4869 403.827C85.9575 403.827 86.3552 403.719 86.68 403.504C87.0049 403.288 87.2518 402.978 87.4208 402.574C87.5899 402.17 87.6744 401.686 87.6744 401.122C87.6744 400.572 87.5915 400.086 87.4258 399.665C87.2601 399.245 87.0148 398.915 86.69 398.676C86.3652 398.437 85.9641 398.318 85.4869 398.318C84.9897 398.318 84.5754 398.444 84.244 398.696C83.9158 398.948 83.6689 399.286 83.5032 399.71C83.3408 400.134 83.2596 400.605 83.2596 401.122C83.2596 401.652 83.3425 402.121 83.5082 402.529C83.6772 402.933 83.9258 403.252 84.2539 403.484C84.5854 403.712 84.9963 403.827 85.4869 403.827Z" fill="#333333"/>
<rect x="45" y="425" width="14" height="14" rx="3" fill="white"/>
<rect x="45" y="425" width="14" height="14" rx="3" stroke="#7F7F7F" stroke-width="2"/>
<path d="M66.7745 427.912V426.818H74.4109V427.912H71.2092V437H69.9762V427.912H66.7745ZM77.0827 437.179C76.5988 437.179 76.1597 437.088 75.7653 436.906C75.3709 436.72 75.0576 436.453 74.8256 436.105C74.5936 435.754 74.4776 435.33 74.4776 434.832C74.4776 434.395 74.5638 434.04 74.7362 433.768C74.9085 433.493 75.1388 433.278 75.4272 433.122C75.7156 432.966 76.0337 432.85 76.3817 432.774C76.7331 432.695 77.0861 432.632 77.4407 432.585C77.9047 432.526 78.2809 432.481 78.5692 432.451C78.8609 432.418 79.073 432.363 79.2056 432.287C79.3415 432.211 79.4094 432.078 79.4094 431.889V431.849C79.4094 431.359 79.2752 430.978 79.0067 430.706C78.7416 430.434 78.3389 430.298 77.7987 430.298C77.2385 430.298 76.7994 430.421 76.4812 430.666C76.163 430.911 75.9393 431.173 75.81 431.452L74.6964 431.054C74.8952 430.59 75.1604 430.229 75.4918 429.97C75.8266 429.708 76.1912 429.526 76.5856 429.423C76.9833 429.317 77.3744 429.264 77.7589 429.264C78.0041 429.264 78.2859 429.294 78.604 429.354C78.9255 429.41 79.2354 429.528 79.5337 429.707C79.8353 429.886 80.0856 430.156 80.2844 430.517C80.4833 430.878 80.5827 431.362 80.5827 431.969V437H79.4094V435.966H79.3498C79.2702 436.132 79.1377 436.309 78.9521 436.498C78.7665 436.687 78.5195 436.848 78.2113 436.98C77.9031 437.113 77.5269 437.179 77.0827 437.179ZM77.2617 436.125C77.7257 436.125 78.1168 436.034 78.435 435.852C78.7565 435.669 78.9985 435.434 79.1609 435.146C79.3266 434.857 79.4094 434.554 79.4094 434.236V433.162C79.3597 433.222 79.2504 433.276 79.0813 433.326C78.9156 433.372 78.7234 433.414 78.5046 433.45C78.2892 433.483 78.0787 433.513 77.8732 433.54C77.671 433.563 77.507 433.583 77.381 433.599C77.0761 433.639 76.7911 433.704 76.5259 433.793C76.2641 433.879 76.052 434.01 75.8896 434.186C75.7305 434.358 75.6509 434.594 75.6509 434.892C75.6509 435.3 75.8017 435.608 76.1033 435.817C76.4083 436.022 76.7944 436.125 77.2617 436.125ZM85.5266 440.023C84.9599 440.023 84.4727 439.95 84.065 439.804C83.6573 439.661 83.3176 439.473 83.0458 439.237C82.7774 439.005 82.5636 438.757 82.4045 438.491L83.3391 437.835C83.4452 437.974 83.5794 438.134 83.7418 438.312C83.9042 438.495 84.1263 438.652 84.408 438.785C84.6931 438.921 85.0659 438.989 85.5266 438.989C86.1431 438.989 86.6519 438.839 87.0529 438.541C87.454 438.243 87.6545 437.776 87.6545 437.139V435.588H87.555C87.4689 435.727 87.3462 435.9 87.1872 436.105C87.0314 436.307 86.806 436.488 86.511 436.647C86.2193 436.803 85.8249 436.881 85.3278 436.881C84.7113 436.881 84.1578 436.735 83.6673 436.443C83.18 436.152 82.7939 435.727 82.5089 435.17C82.2272 434.614 82.0863 433.937 82.0863 433.142C82.0863 432.36 82.2238 431.679 82.4989 431.099C82.774 430.515 83.1568 430.065 83.6474 429.746C84.1379 429.425 84.7047 429.264 85.3477 429.264C85.8448 429.264 86.2392 429.347 86.5309 429.513C86.8259 429.675 87.0513 429.861 87.207 430.07C87.3661 430.275 87.4888 430.444 87.5749 430.577H87.6943V429.364H88.8278V437.219C88.8278 437.875 88.6786 438.409 88.3803 438.82C88.0854 439.234 87.6876 439.537 87.1872 439.729C86.69 439.925 86.1365 440.023 85.5266 440.023ZM85.4869 435.827C85.9575 435.827 86.3552 435.719 86.68 435.504C87.0049 435.288 87.2518 434.978 87.4208 434.574C87.5899 434.17 87.6744 433.686 87.6744 433.122C87.6744 432.572 87.5915 432.086 87.4258 431.665C87.2601 431.245 87.0148 430.915 86.69 430.676C86.3652 430.437 85.9641 430.318 85.4869 430.318C84.9897 430.318 84.5754 430.444 84.244 430.696C83.9158 430.948 83.6689 431.286 83.5032 431.71C83.3408 432.134 83.2596 432.605 83.2596 433.122C83.2596 433.652 83.3425 434.121 83.5082 434.529C83.6772 434.933 83.9258 435.252 84.2539 435.484C84.5854 435.712 84.9963 435.827 85.4869 435.827Z" fill="#333333"/>
</g>
<defs>
<clipPath id="clip0_49_2563">
<path d="M0 7.99999C0 3.58171 3.58172 0 8 0H368C372.418 0 376 3.58172 376 8V476C376 480.418 372.418 484 368 484H8C3.58172 484 0 480.418 0 476V7.99999Z" fill="white"/>
</clipPath>
<clipPath id="clip1_49_2563">
<path d="M24 60C24 55.5817 27.5817 52 32 52H344C348.418 52 352 55.5817 352 60V84C352 88.4183 348.418 92 344 92H32C27.5817 92 24 88.4183 24 84V60Z" fill="white"/>
</clipPath>
</defs>
</svg>
